<svg width="290" height="101" viewBox="0 0 290 101" fill="none" xmlns="http://www.w3.org/2000/svg">
<path d="M65.3654 97.0666C65.2878 97.0666 64.9406 97.0666 64.332 97.0666L63.5355 97.0993V96.895C63.9971 96.895 64.3157 96.7725 64.4831 96.5233C64.6179 96.3191 64.6874 95.976 64.6874 95.4899V91.3685C64.6874 90.858 64.5281 90.4495 64.2054 90.1391C63.8827 89.8286 63.4701 89.6734 62.9636 89.6734C62.0977 89.6734 61.3094 90.041 60.5987 90.7763V95.4899C60.5987 95.8739 60.6477 96.1843 60.7498 96.4212C60.8846 96.748 61.146 96.9114 61.5299 96.9114H61.7832V97.0993L59.9533 97.0666C59.8634 97.0666 59.5162 97.0666 58.9199 97.0666L58.1234 97.0993L58.107 96.895C58.5441 96.895 58.8382 96.8133 58.9934 96.6499C59.1445 96.4866 59.2344 96.1884 59.2589 95.7595V95.4899V91.2828C59.2589 90.6047 59.071 90.2657 58.6911 90.2657C58.5237 90.2657 58.3072 90.2984 58.0376 90.3678V90.1636C59.0792 89.747 59.9329 89.363 60.5987 89.0117V90.5884C61.436 89.5836 62.4286 89.0812 63.5845 89.0812C64.3197 89.0812 64.9079 89.2854 65.3572 89.6898C65.8025 90.0941 66.0271 90.6578 66.0271 91.3808V95.4777C66.0271 95.9392 66.068 96.2537 66.1456 96.4253C66.2804 96.7071 66.5459 96.8624 66.9421 96.8828L67.1953 96.8991V97.1033C67.036 97.1033 66.6929 97.0911 66.1619 97.0707H65.3654V97.0666Z" fill="black"/>
<path d="M76.8436 92.6591C76.4719 92.749 76.0962 92.8675 75.7245 93.0145C74.9443 93.329 74.4378 93.5782 74.1968 93.762C73.6862 94.1337 73.433 94.6279 73.433 95.2365C73.433 96.2985 73.9027 96.8295 74.8422 96.8295C75.4753 96.8295 76.1411 96.466 76.8436 95.743V92.6591V92.6591ZM77.2194 97.4055C77.0724 97.189 76.9539 96.8867 76.8641 96.4905C76.8396 96.4007 76.8069 96.2414 76.7619 96.0167C75.8919 96.8867 74.9811 97.3238 74.0334 97.3238C73.1185 97.3238 72.5017 96.9235 72.1872 96.1188C72.0728 95.837 72.0156 95.5633 72.0156 95.3019C72.0156 94.7464 72.3506 94.2685 73.0164 93.8559C73.3799 93.6395 73.9762 93.3985 74.8136 93.1248L76.8477 92.4794V91.1356C76.8477 90.6168 76.7415 90.192 76.525 89.8612C76.2759 89.4772 75.9042 89.2852 75.4059 89.2852C75.0423 89.2852 74.7033 89.3874 74.3888 89.5916C74.0253 89.8162 73.8455 90.1103 73.8455 90.4616C73.8455 90.6781 73.8946 90.9518 73.9967 91.2826L72.7754 91.6748C72.7427 91.5849 72.7141 91.4419 72.6896 91.2499C72.6896 90.6291 73.1185 90.0899 73.9762 89.6406C74.7237 89.2444 75.4508 89.0483 76.1656 89.0483C76.7538 89.0483 77.2235 89.224 77.583 89.5753C77.9383 89.9265 78.118 90.3963 78.118 90.9845V95.4081C78.118 96.0412 78.3509 96.3557 78.8124 96.3557C78.9472 96.3557 79.1392 96.2985 79.3884 96.1883L79.4374 96.323L77.2194 97.4055Z" fill="black"/>
<path d="M88.1916 97.0175L87.971 97.3075L87.6647 97.3238C87.3379 97.3483 86.9907 97.2789 86.6313 97.1196C85.557 96.6703 85.0219 95.886 85.0219 94.775V89.608H83.4126V89.3384H84.1764C84.5849 89.3261 84.9974 89.0647 85.4141 88.5541C85.7858 88.0762 86.0063 87.6147 86.0758 87.1735L86.1615 86.6099H86.3494V89.3384H88.9595L88.8737 89.608H86.3453V94.8485C86.3453 95.0854 86.3617 95.2611 86.3944 95.3755C86.4515 95.739 86.619 96.0412 86.8927 96.2822C87.1704 96.5273 87.489 96.6458 87.8526 96.6458C88.1017 96.6458 88.3264 96.5886 88.5306 96.4742C88.6082 96.4293 88.8084 96.2945 89.1229 96.0658C88.7185 96.417 88.4081 96.7315 88.1916 97.0175Z" fill="black"/>
<path d="M100.249 97.3893C99.9876 97.1074 99.861 96.6663 99.861 96.0659L99.5056 96.3191C99.1789 96.556 98.7663 96.8174 98.268 97.0993C97.884 97.2586 97.4307 97.3362 96.9119 97.3362C96.1644 97.3362 95.5681 97.1197 95.1228 96.6826C94.6776 96.2456 94.453 95.6574 94.453 94.9099V91.2828C94.453 90.6047 94.2569 90.2657 93.8607 90.2657C93.7014 90.2657 93.489 90.2984 93.2153 90.3678V90.1636C94.0282 89.8572 94.8819 89.4733 95.7764 89.0117V94.9303C95.7764 95.5308 95.9275 96.0087 96.2339 96.3722C96.5402 96.7357 96.9854 96.9155 97.5736 96.9155C98.4681 96.9155 99.2197 96.5315 99.8283 95.7636V91.099C99.8283 90.5435 99.6323 90.2698 99.2361 90.2698C99.0768 90.2698 98.8644 90.3025 98.5907 90.3719V90.1636L99.8814 89.6489C100.245 89.4978 100.666 89.2854 101.152 89.0117V94.9793C101.152 95.8984 101.385 96.3559 101.846 96.3559C102.005 96.3559 102.197 96.2987 102.422 96.1884L102.455 96.3068L100.249 97.3893Z" fill="black"/>
<path d="M111.701 89.9255C111.277 89.9255 110.864 90.0971 110.464 90.4443C110.063 90.7874 109.863 91.1754 109.863 91.6043V95.6971C109.863 96.4854 110.251 96.8816 111.031 96.8816V97.1022C110.884 97.1022 110.541 97.0899 109.998 97.0695H109.185C109.108 97.0695 108.76 97.0695 108.152 97.0695L107.355 97.1022V96.8816C108.135 96.8816 108.524 96.4078 108.524 95.4561V91.2857C108.524 90.6077 108.336 90.2686 107.956 90.2686C107.788 90.2686 107.572 90.3013 107.302 90.3707L107.27 90.1502C108.213 89.8112 109.079 89.4313 109.863 89.0146V91.253L110.149 90.624C110.77 89.5947 111.477 89.08 112.273 89.08C112.535 89.08 112.772 89.1209 113 89.1985V90.7915C112.755 90.2155 112.318 89.9255 111.701 89.9255Z" fill="black"/>
<path d="M123.229 92.4227C123.229 91.6221 123.078 90.9318 122.771 90.3559C122.388 89.6452 121.828 89.2857 121.093 89.2857C120.484 89.2857 119.945 89.6248 119.483 90.3028C119.067 90.891 118.834 91.5118 118.789 92.1695L118.756 92.6433H123.233V92.4227H123.229ZM124.634 92.9292H118.752V93.1661L118.769 93.354C118.858 94.4038 119.165 95.2697 119.683 95.9477C120.284 96.7402 121.08 97.1364 122.073 97.1364C122.718 97.1364 123.454 96.8954 124.279 96.4093L124.348 96.5604C123.548 97.0792 122.649 97.3406 121.652 97.3406C120.374 97.3406 119.336 96.9485 118.532 96.1601C117.731 95.3759 117.327 94.3425 117.327 93.064C117.327 92.1368 117.564 91.328 118.037 90.6377C118.548 89.8902 119.234 89.4246 120.104 89.2285C120.513 89.1387 120.913 89.0938 121.309 89.0938C122.383 89.0938 123.213 89.445 123.801 90.1435C124.356 90.8011 124.63 91.6752 124.63 92.7699V92.9292H124.634Z" fill="black"/>
<path d="M138.963 97.0175L138.742 97.3075L138.436 97.3238C138.109 97.3483 137.762 97.2789 137.402 97.1196C136.328 96.6703 135.793 95.886 135.793 94.775V89.608H134.184V89.3384H134.947C135.356 89.3261 135.768 89.0647 136.185 88.5541C136.557 88.0762 136.777 87.6147 136.847 87.1735L136.933 86.6099H137.12V89.3384H139.73L139.645 89.608H137.116V94.8485C137.116 95.0854 137.133 95.2611 137.165 95.3755C137.223 95.739 137.39 96.0412 137.664 96.2822C137.941 96.5273 138.26 96.6458 138.624 96.6458C138.873 96.6458 139.097 96.5886 139.302 96.4742C139.379 96.4293 139.579 96.2945 139.894 96.0658C139.49 96.417 139.179 96.7315 138.963 97.0175Z" fill="black"/>
<path d="M147.884 89.3004C147.071 89.3004 146.413 89.6394 145.915 90.3134C145.462 90.922 145.237 91.649 145.237 92.4986C145.237 93.5933 145.486 94.5859 145.985 95.4763C146.593 96.5587 147.41 97.102 148.427 97.102C149.322 97.102 149.987 96.7017 150.429 95.9011C150.78 95.268 150.956 94.4674 150.956 93.4994C150.956 92.033 150.514 90.8811 149.632 90.0479C149.113 89.5495 148.529 89.3004 147.884 89.3004ZM148.125 97.3348C146.916 97.3348 145.915 96.9468 145.123 96.1748C144.33 95.3987 143.934 94.4102 143.934 93.1971C143.934 91.9431 144.33 90.9465 145.123 90.2112C145.915 89.476 146.944 89.1084 148.211 89.1084C149.399 89.1084 150.384 89.4719 151.168 90.1949C151.952 90.9179 152.348 91.8737 152.348 93.0623C152.348 94.2959 151.952 95.3129 151.16 96.1217C150.367 96.9304 149.354 97.3348 148.125 97.3348Z" fill="black"/>
<path d="M166.923 89.506C166.18 89.506 165.465 89.8613 164.779 90.5761V96.5438C165.232 96.9073 165.8 97.087 166.49 97.087C167.507 97.087 168.291 96.6254 168.847 95.6982C169.321 94.9181 169.558 93.9909 169.558 92.9166C169.558 91.9894 169.353 91.2174 168.949 90.5925C168.475 89.8654 167.801 89.506 166.923 89.506ZM166.772 97.2871C166.143 97.2871 165.473 97.1238 164.779 96.797V99.4193C164.779 99.9176 164.848 100.265 164.983 100.457C165.142 100.718 165.457 100.849 165.93 100.849V101L164.101 100.931C164.011 100.931 163.664 100.943 163.067 100.963L162.271 100.996V100.829C162.724 100.829 163.034 100.71 163.202 100.473C163.324 100.293 163.398 99.9585 163.423 99.4724V99.1007V91.2828C163.423 90.6047 163.239 90.2657 162.867 90.2657C162.773 90.2657 162.561 90.2943 162.234 90.3515V90.1636C163.043 89.8572 163.888 89.4733 164.779 89.0117V90.3842C165.477 89.5141 166.351 89.0771 167.409 89.0771C168.512 89.0771 169.37 89.4365 169.991 90.1554C170.611 90.8743 170.918 91.7933 170.918 92.9125C170.918 94.1461 170.534 95.1754 169.766 96.0005C168.986 96.8583 167.989 97.2871 166.772 97.2871Z" fill="black"/>
<path d="M181.921 92.4227C181.921 91.6221 181.77 90.9318 181.463 90.3559C181.079 89.6452 180.52 89.2857 179.785 89.2857C179.176 89.2857 178.637 89.6248 178.175 90.3028C177.759 90.891 177.526 91.5118 177.481 92.1695L177.448 92.6433H181.925V92.4227H181.921ZM183.326 92.9292H177.444V93.1661L177.46 93.354C177.55 94.4038 177.857 95.2697 178.375 95.9477C178.976 96.7402 179.772 97.1364 180.765 97.1364C181.41 97.1364 182.145 96.8954 182.971 96.4093L183.04 96.5604C182.239 97.0792 181.341 97.3406 180.344 97.3406C179.066 97.3406 178.028 96.9485 177.224 96.1601C176.423 95.3759 176.019 94.3425 176.019 93.064C176.019 92.1368 176.255 91.328 176.729 90.6377C177.24 89.8902 177.926 89.4246 178.796 89.2285C179.205 89.1387 179.605 89.0938 180.001 89.0938C181.075 89.0938 181.904 89.445 182.493 90.1435C183.048 90.8011 183.322 91.6752 183.322 92.7699V92.9292H183.326Z" fill="black"/>
<path d="M192.332 89.3004C191.519 89.3004 190.862 89.6394 190.364 90.3134C189.91 90.922 189.686 91.649 189.686 92.4986C189.686 93.5933 189.935 94.5859 190.433 95.4763C191.042 96.5587 191.859 97.102 192.876 97.102C193.77 97.102 194.436 96.7017 194.877 95.9011C195.228 95.268 195.404 94.4674 195.404 93.4994C195.404 92.033 194.963 90.8811 194.081 90.0479C193.558 89.5495 192.978 89.3004 192.332 89.3004ZM192.569 97.3348C191.36 97.3348 190.359 96.9468 189.567 96.1748C188.775 95.3987 188.378 94.4102 188.378 93.1971C188.378 91.9431 188.775 90.9465 189.567 90.2112C190.359 89.476 191.389 89.1084 192.655 89.1084C193.844 89.1084 194.828 89.4719 195.612 90.1949C196.397 90.9179 196.793 91.8737 196.793 93.0623C196.793 94.2959 196.397 95.3129 195.604 96.1217C194.816 96.9304 193.803 97.3348 192.569 97.3348Z" fill="black"/>
<path d="M206.453 89.506C205.71 89.506 204.995 89.8613 204.309 90.5761V96.5438C204.762 96.9073 205.33 97.087 206.02 97.087C207.037 97.087 207.822 96.6254 208.377 95.6982C208.851 94.9181 209.088 93.9909 209.088 92.9166C209.088 91.9894 208.884 91.2174 208.479 90.5925C208.005 89.8654 207.331 89.506 206.453 89.506ZM206.302 97.2871C205.673 97.2871 205.003 97.1238 204.309 96.797V99.4193C204.309 99.9176 204.378 100.265 204.513 100.457C204.672 100.718 204.987 100.849 205.461 100.849V101L203.631 100.931C203.541 100.931 203.194 100.943 202.597 100.963L201.801 100.996V100.829C202.254 100.829 202.565 100.71 202.732 100.473C202.855 100.293 202.928 99.9585 202.953 99.4724V99.1007V91.2828C202.953 90.6047 202.769 90.2657 202.397 90.2657C202.303 90.2657 202.091 90.2943 201.764 90.3515V90.1636C202.573 89.8572 203.418 89.4733 204.309 89.0117V90.3842C205.007 89.5141 205.881 89.0771 206.939 89.0771C208.042 89.0771 208.9 89.4365 209.521 90.1554C210.142 90.8743 210.448 91.7933 210.448 92.9125C210.448 94.1461 210.064 95.1754 209.296 96.0005C208.516 96.8583 207.519 97.2871 206.302 97.2871Z" fill="black"/>
<path d="M216.619 95.1719V85.7242C216.619 85.0584 216.411 84.7235 215.99 84.7235C215.892 84.7235 215.704 84.7521 215.426 84.8093L215.361 84.605C216.202 84.2987 217.072 83.927 217.971 83.4858V95.6417C217.971 96.479 218.355 96.8956 219.123 96.8956V97.0835L217.072 97.0345C216.598 97.0223 216.055 97.0386 215.447 97.0835L215.463 96.8793C216.186 96.8793 216.57 96.5117 216.615 95.7805V95.1719H216.619Z" fill="black"/>
<path d="M230.012 92.4227C230.012 91.6221 229.861 90.9318 229.555 90.3559C229.171 89.6452 228.611 89.2857 227.876 89.2857C227.268 89.2857 226.728 89.6248 226.267 90.3028C225.85 90.891 225.617 91.5118 225.572 92.1695L225.54 92.6433H230.017V92.4227H230.012ZM231.422 92.9292H225.54V93.1661L225.556 93.354C225.646 94.4038 225.952 95.2697 226.471 95.9477C227.072 96.7402 227.868 97.1364 228.861 97.1364C229.506 97.1364 230.241 96.8954 231.066 96.4093L231.136 96.5604C230.335 97.0792 229.437 97.3406 228.44 97.3406C227.161 97.3406 226.124 96.9485 225.319 96.1601C224.519 95.3759 224.114 94.3425 224.114 93.064C224.114 92.1368 224.351 91.328 224.825 90.6377C225.336 89.8902 226.022 89.4246 226.892 89.2285C227.3 89.1387 227.701 89.0938 228.097 89.0938C229.171 89.0938 230 89.445 230.588 90.1435C231.144 90.8011 231.418 91.6752 231.418 92.7699V92.9292H231.422Z" fill="black"/>
<path fill-rule="evenodd" clip-rule="evenodd" d="M124.765 3.25518C115.403 9.8355 112.282 22.5672 100.159 17.0285C113.165 16.1503 113.749 7.88305 122.261 3.47575C115.182 0.571586 103.933 2.52812 100.809 11.7716C103.455 9.53323 107.626 5.01973 118.511 4.62761C108.292 6.90274 102.177 12.2168 98.5294 16.6405C96.3318 1.8419 110.383 -4.33404 124.765 3.25518Z" fill="#75B051"/>
<path d="M16.2445 9.30106C14.9783 9.30106 13.3894 9.4767 11.5064 9.83206V30.9945C13.5773 31.7011 15.6073 32.0524 17.5924 32.0524C24.2504 32.0524 27.5793 28.6581 27.5793 21.8694C27.5793 18.0789 26.6521 15.0808 24.814 12.8751C22.8371 10.4938 19.9819 9.30106 16.2445 9.30106ZM38.62 56.9154C33.02 56.9154 28.1267 52.8798 23.9399 44.8127L19.9738 37.2112C19.3243 35.9328 18.7157 35.075 18.1561 34.6339C17.5393 33.9721 16.6366 33.531 15.4113 33.3104L11.5104 32.6487V48.1907C11.5104 50.9682 11.7637 52.7777 12.2824 53.6151C13.0218 54.8037 14.5862 55.4 17.0002 55.4V55.9964L8.53685 55.7963C8.00585 55.7963 6.37609 55.8289 3.64348 55.8943L0 55.9923V55.2652C2.42626 55.2652 4.01109 54.6485 4.76266 53.4149C5.33451 52.4877 5.62043 50.715 5.62043 48.1131V15.861C5.62043 13.7901 5.42029 12.2992 5.02408 11.421C4.4073 10.0118 3.14924 9.30514 1.25398 9.30514H0V8.44738H8.13247C9.14546 8.44738 10.669 8.39428 12.695 8.28399C14.725 8.17371 16.2445 8.12061 17.2575 8.12061C28.1022 8.12061 33.5265 12.1766 33.5265 20.2764C33.5265 23.3195 32.7096 25.8764 31.0798 27.9473C29.4501 30.0101 27.1545 31.3743 24.2014 32.036L22.7472 32.3669C24.3892 34.2622 26.019 36.6231 27.6202 39.4414L32.0275 47.3207C35.2339 53.0187 38.4771 55.8616 41.7284 55.8616C42.0389 55.8616 42.2799 55.8616 42.4555 55.8616V56.4784C41.2669 56.7725 39.9884 56.9154 38.62 56.9154Z" fill="black"/>
<path d="M48.5416 55.8568C48.1903 55.8568 46.8424 55.8568 44.506 55.8568L41.3976 55.9875V55.1297C42.9865 55.1297 44.1302 54.7989 44.8368 54.1372C45.3678 53.6511 45.6946 52.4829 45.8294 50.6326L45.8947 49.64V33.5058C45.8947 30.859 45.1472 29.5396 43.6482 29.5396C43.252 29.5396 42.3901 29.6499 41.0708 29.8705L41.1362 29.0781C45.1023 27.5341 48.4109 26.0595 51.0577 24.6463V47.6386C51.0577 50.1179 51.168 51.7273 51.3885 52.4788C51.8746 54.1658 52.9979 55.0685 54.7624 55.2033L55.755 55.2686L55.6896 55.9957L48.5416 55.8568ZM48.5416 18.4948C47.4387 18.4948 46.536 18.0986 45.8294 17.3062C45.1227 16.5138 44.7715 15.5662 44.7715 14.4633C44.7715 13.4503 45.1472 12.5435 45.8947 11.7511C46.6463 10.9587 47.5245 10.5625 48.5416 10.5625C49.5995 10.5625 50.494 10.9465 51.2211 11.7184C51.9481 12.4904 52.3117 13.4054 52.3117 14.4633C52.3117 15.5662 51.9604 16.5138 51.2537 17.3062C50.5471 18.0945 49.6444 18.4948 48.5416 18.4948Z" fill="black"/>
<path d="M59.3198 56.0574L80.0207 26.497H70.6955C67.9629 26.497 66.0676 26.783 65.0097 27.3548C63.4657 28.1921 62.4731 29.8668 62.032 32.3789C61.9421 32.9099 61.9217 33.3265 61.9667 33.6369H61.4357V25.5698H86.4008L65.7 55.1302H75.2131C82.5654 55.1302 86.2334 52.7489 86.2334 47.9862H86.6949V56.0533H59.3198V56.0574Z" fill="black"/>
<path d="M184.74 55.7917C183.727 55.7468 182.326 55.7713 180.529 55.8571C178.544 55.9878 177.167 56.0572 176.375 56.0572V55.3302C178.711 55.3302 180.255 54.7583 181.003 53.6106C181.574 52.7283 181.864 51.0087 181.864 48.4517V32.9097H154.089V49.816C154.089 51.8542 154.497 53.2879 155.314 54.1252C156.131 54.9748 157.553 55.3915 159.579 55.3915V56.0532L150.617 55.7877L142.713 56.0532V55.3915C145.18 55.3915 146.79 54.7951 147.541 53.6065C148.113 52.6793 148.403 50.8616 148.403 48.1739V16.3874C148.403 13.6998 148.117 11.9025 147.541 11.0203C146.794 9.83164 145.185 9.23529 142.713 9.23529V8.44287L151.111 8.70837C151.642 8.70837 153.248 8.66344 155.972 8.57766L159.575 8.44696V9.23937C157.226 9.23937 155.674 9.81122 154.935 10.959C154.371 11.8413 154.085 13.5813 154.085 16.1832V31.6557H181.86V16.3793C181.86 13.6467 181.607 11.8617 181.088 11.0243C180.349 9.83573 178.785 9.23937 176.371 9.23937V8.44696C177.241 8.44696 178.862 8.49189 181.231 8.57766L184.769 8.70837C185.165 8.70837 186.786 8.66344 189.629 8.57766L193.232 8.44696V9.23937C191.137 9.23937 189.662 9.64783 188.812 10.4648C187.963 11.2817 187.546 12.7235 187.546 14.7944V48.1249C187.546 50.9025 187.812 52.7119 188.339 53.5493C189.086 54.7379 190.695 55.3343 193.167 55.3343L193.232 56.0613C192.48 56.0613 190.883 56.0164 188.424 55.9306L184.74 55.7917Z" fill="black"/>
<path d="M221.21 37.8023C221.21 34.6735 220.614 31.9817 219.425 29.7352C217.926 26.9576 215.745 25.5689 212.877 25.5689C210.496 25.5689 208.401 26.8923 206.595 29.535C204.965 31.8265 204.059 34.2528 203.883 36.8097L203.752 38.6601H221.21V37.8023ZM226.7 39.7874H203.752V40.7146L203.818 41.4417C204.169 45.5426 205.362 48.9165 207.388 51.5593C209.724 54.6472 212.832 56.1871 216.713 56.1871C219.225 56.1871 222.092 55.2395 225.311 53.3442L225.576 53.9406C222.448 55.9666 218.943 56.9836 215.063 56.9836C210.079 56.9836 206.023 55.4519 202.895 52.3884C199.766 49.325 198.197 45.3016 198.197 40.3184C198.197 36.7035 199.124 33.5502 200.975 30.8625C202.96 27.9543 205.648 26.1244 209.042 25.3728C210.631 25.0215 212.195 24.8418 213.739 24.8418C217.926 24.8418 221.169 26.2101 223.461 28.9428C225.621 31.4997 226.7 34.9185 226.7 39.1951V39.7874V39.7874Z" fill="black"/>
<path d="M248.745 28.0815C247.082 28.0815 245.473 28.7555 243.917 30.0993C242.365 31.4309 241.58 32.9422 241.58 34.6169V50.5755C241.58 53.6512 243.1 55.1952 246.143 55.1952V56.0529C245.571 56.0529 244.223 56.008 242.107 55.9222H238.934C238.623 55.9222 237.279 55.9222 234.898 55.9222L231.79 56.0529V55.1952C234.833 55.1952 236.352 53.3448 236.352 49.6401V33.3752C236.352 30.7283 235.613 29.409 234.138 29.409C233.489 29.409 232.639 29.5397 231.594 29.8052L231.463 28.9474C235.143 27.624 238.517 26.1495 241.58 24.5156V33.2444L242.696 30.7978C245.11 26.7867 247.875 24.7811 250.983 24.7811C251.996 24.7811 252.936 24.9363 253.814 25.2427V31.4595C252.858 29.2088 251.159 28.0815 248.745 28.0815Z" fill="black"/>
<path d="M273.657 26.6276C270.484 26.6276 267.706 27.9959 265.325 30.7408V54.2722C267.31 55.5507 269.471 56.192 271.807 56.192C275.773 56.192 278.861 54.5827 281.067 51.3517C283.052 48.5211 284.044 45.0369 284.044 40.8788C284.044 36.9861 283.297 33.7797 281.798 31.2677C279.98 28.1715 277.272 26.6276 273.657 26.6276ZM272.861 56.6536C271.362 56.6536 269.773 56.4984 268.098 56.192L260.231 54.7338V12.266C260.231 9.2802 259.394 7.78114 257.719 7.78114C257.323 7.78114 256.571 7.89143 255.473 8.112L255.272 7.31958C258.757 6.13096 262.106 4.67275 265.325 2.95312V29.8707C267.265 28.1715 268.829 27.0033 270.022 26.3866C271.697 25.492 273.572 25.0427 275.642 25.0427C279.874 25.0427 283.236 26.3661 285.727 29.0089C288.219 31.6557 289.465 35.1154 289.465 39.392C289.465 44.5958 287.986 48.7703 285.033 51.9236C282.076 55.0769 278.02 56.6536 272.861 56.6536Z" fill="black"/>
<path d="M109.25 38.7304C107.796 39.0817 106.342 39.5473 104.884 40.1192C101.841 41.3527 99.8599 42.3249 98.9327 43.0274C96.9475 44.4816 95.955 46.4013 95.955 48.7827C95.955 52.9285 97.7849 54.9994 101.445 54.9994C103.912 54.9994 106.514 53.5903 109.25 50.7678V38.7304ZM110.705 57.246C110.133 56.4086 109.667 55.2159 109.316 53.676C109.226 53.3248 109.095 52.708 108.92 51.8257C105.525 55.22 101.976 56.9192 98.271 56.9192C94.701 56.9192 92.2952 55.3548 91.0616 52.2137C90.6205 51.1109 90.3999 50.053 90.3999 49.0277C90.3999 46.867 91.6988 44.9921 94.3007 43.395C95.7099 42.5577 98.0463 41.6101 101.31 40.5522L109.246 38.0279V32.7873C109.246 30.7572 108.826 29.1071 107.988 27.8163C107.02 26.3173 105.562 25.5698 103.622 25.5698C102.213 25.5698 100.889 25.966 99.6556 26.7707C98.2464 27.6529 97.5398 28.7885 97.5398 30.165C97.5398 31.0023 97.74 32.0725 98.1362 33.3632L93.3735 34.895C93.2428 34.5437 93.1325 33.9923 93.0426 33.2407C93.0426 30.8144 94.7173 28.7231 98.0667 26.9586C100.975 25.4146 103.822 24.6426 106.599 24.6426C108.891 24.6426 110.733 25.3247 112.122 26.6931C113.511 28.0614 114.205 29.8913 114.205 32.1828V49.4444C114.205 51.9115 115.108 53.1491 116.917 53.1491C117.448 53.1491 118.196 52.9285 119.164 52.4874L119.364 53.0184L110.705 57.246Z" fill="black"/>
<path d="M246.2 71.8647H43.2603V73.3107H246.2V71.8647Z" fill="#75B051"/>
</svg>
